<?xml version="1.0" encoding="UTF-8" standalone="no"?>
<!-- Generator: Adobe Illustrator 16.0.4, SVG Export Plug-In . SVG Version: 6.00 Build 0)  -->

<svg
   xmlns:dc="http://purl.org/dc/elements/1.1/"
   xmlns:cc="http://creativecommons.org/ns#"
   xmlns:rdf="http://www.w3.org/1999/02/22-rdf-syntax-ns#"
   xmlns:svg="http://www.w3.org/2000/svg"
   xmlns="http://www.w3.org/2000/svg"
   xmlns:sodipodi="http://sodipodi.sourceforge.net/DTD/sodipodi-0.dtd"
   xmlns:inkscape="http://www.inkscape.org/namespaces/inkscape"
   version="1.1"
   id="Layer_1"
   x="0px"
   y="0px"
   width="97.75px"
   height="100px"
   viewBox="0 0 97.75 100"
   enable-background="new 0 0 97.75 100"
   xml:space="preserve"
   inkscape:version="0.91 r13725"
   sodipodi:docname="Bear_metal_white.svg"><metadata
     id="metadata9"><rdf:RDF><cc:Work
         rdf:about=""><dc:format>image/svg+xml</dc:format><dc:type
           rdf:resource="http://purl.org/dc/dcmitype/StillImage" /><dc:title></dc:title></cc:Work></rdf:RDF></metadata><defs
     id="defs7" /><sodipodi:namedview
     pagecolor="#ffffff"
     bordercolor="#666666"
     borderopacity="1"
     objecttolerance="10"
     gridtolerance="10"
     guidetolerance="10"
     inkscape:pageopacity="0"
     inkscape:pageshadow="2"
     inkscape:window-width="1920"
     inkscape:window-height="1016"
     id="namedview5"
     showgrid="false"
     inkscape:zoom="2.36"
     inkscape:cx="49.722458"
     inkscape:cy="50"
     inkscape:window-x="0"
     inkscape:window-y="27"
     inkscape:window-maximized="1"
     inkscape:current-layer="Layer_1" /><path
     d="M49,3.045c6.988,0,13.633,1.471,19.642,4.119l-0.005,0.002c0.045-0.069,0.091-0.138,0.138-0.207  c2.833-4.192,7.629-6.949,13.069-6.949c8.704,0,15.76,7.056,15.76,15.76c0,5.009-2.337,9.472-5.979,12.358l0.004-0.003  c3.9,7.009,6.122,14.807,6.122,23.397C97.75,78.447,75.924,100,49,100h-0.25C21.826,100,0,78.447,0,51.523  c0-8.59,2.221-16.525,6.122-23.534l0.004,0.071c-3.643-2.887-5.979-7.315-5.979-12.324c0-8.704,7.056-15.743,15.76-15.743  c5.44,0,10.236,2.683,13.069,6.875C29.021,6.938,29.067,7,29.113,7h-0.005c6.009-3,12.654-4.036,19.642-4.037 M65.627,45H32.123  c-4.322,4-6.998,10.11-6.998,16.689c0,13.117,10.634,23.679,23.75,23.679c13.117,0,23.751-10.526,23.751-23.643  C72.625,55.146,69.95,49,65.627,45z M35.958,52c0,8,5.782,12.916,12.916,12.916C56.009,64.916,61.792,60,61.792,52H35.958z"
     id="path3"
     style="fill:#ffffff" /></svg>